<?xml version="1.0" standalone="no"?>
<!DOCTYPE svg PUBLIC "-//W3C//DTD SVG 20010904//EN"
 "http://www.w3.org/TR/2001/REC-SVG-20010904/DTD/svg10.dtd">
<svg version="1.0" xmlns="http://www.w3.org/2000/svg"
 width="500.000000pt" height="500.000000pt" viewBox="0 0 500.000000 500.000000"
 preserveAspectRatio="xMidYMid meet">
<metadata>
Created by potrace 1.14, written by Peter Selinger 2001-2017
</metadata>
<g transform="translate(0.000000,500.000000) scale(0.100000,-0.100000)"
fill="#000000" stroke="none">
<path d="M2445 4216 c-33 -18 -127 -72 -210 -120 -82 -48 -271 -158 -420 -244
-238 -137 -347 -200 -730 -421 -49 -29 -96 -60 -102 -69 -10 -12 -13 -202 -13
-868 0 -969 -10 -867 95 -925 33 -18 76 -42 95 -54 19 -12 175 -102 345 -200
333 -190 406 -233 500 -288 90 -53 235 -137 275 -160 19 -10 76 -43 127 -73
51 -30 102 -54 114 -54 19 0 307 158 479 263 36 22 85 51 110 65 54 30 376
215 590 339 85 50 196 113 245 142 147 85 130 -39 130 955 0 745 -2 859 -15
867 -61 38 -282 168 -415 244 -88 51 -279 161 -425 245 -146 84 -357 207 -470
272 -113 65 -214 118 -225 118 -11 0 -47 -16 -80 -34z m183 -163 c54 -32 113
-67 133 -78 19 -11 144 -83 278 -160 133 -77 259 -149 279 -161 110 -62 144
-81 212 -122 41 -25 95 -56 120 -70 146 -82 231 -135 223 -142 -4 -4 -28 -19
-53 -32 -25 -14 -80 -46 -123 -72 -43 -25 -80 -46 -82 -46 -2 0 -90 -51 -197
-113 -179 -105 -224 -131 -318 -185 -19 -11 -154 -88 -300 -172 -145 -85 -270
-153 -276 -153 -8 0 -477 263 -574 323 -32 19 -741 429 -772 446 -14 7 12 26
130 94 80 47 152 86 159 88 7 2 13 8 13 13 0 5 4 9 9 9 5 0 94 49 198 109 103
60 287 166 408 236 121 70 239 138 263 152 24 13 69 40 100 59 31 18 61 34 65
34 5 0 52 -26 105 -57z m-1323 -958 c88 -51 232 -134 320 -185 166 -96 460
-266 530 -305 22 -13 81 -47 130 -76 50 -28 109 -63 132 -76 l43 -25 0 -754
c0 -415 -3 -754 -8 -754 -4 0 -39 19 -77 41 -92 55 -250 146 -300 174 -22 12
-182 104 -355 205 -173 100 -362 209 -420 242 -58 33 -126 74 -152 90 l-48 30
0 754 0 755 23 -12 c12 -7 94 -53 182 -104z m2645 -639 l-1 -754 -137 -80
c-75 -44 -153 -89 -172 -100 -85 -48 -286 -165 -295 -172 -5 -4 -32 -20 -60
-35 -188 -104 -546 -311 -562 -325 -7 -5 -14 -10 -17 -10 -3 0 -28 -13 -56
-30 -28 -16 -53 -30 -55 -30 -3 0 -5 339 -5 754 l0 754 108 64 c59 34 112 65
117 67 6 2 37 21 70 41 33 20 67 39 75 43 8 4 29 15 45 25 17 10 50 30 75 44
95 53 391 225 530 306 80 47 165 96 188 109 24 14 65 38 90 53 26 16 50 29 55
29 4 1 7 -338 7 -753z"/>
<path d="M1590 2383 c-39 -7 -79 -52 -95 -107 -62 -209 106 -475 331 -524 51
-11 110 6 141 43 64 74 55 252 -20 376 -82 136 -245 233 -357 212z m169 -141
c92 -56 125 -118 126 -229 0 -67 -4 -86 -21 -110 -28 -38 -73 -42 -132 -12
-96 50 -152 186 -123 296 21 76 81 98 150 55z"/>
<path d="M3384 2410 c-130 -27 -284 -191 -284 -303 0 -86 37 -98 177 -57 97
28 118 23 109 -22 -8 -41 -49 -85 -101 -109 -51 -23 -60 -23 -82 0 -18 20 -19
19 -70 -10 -46 -26 -51 -33 -47 -57 8 -42 38 -66 83 -66 93 1 266 126 311 226
11 24 20 64 20 91 0 81 -46 105 -142 73 -125 -42 -153 -39 -138 15 12 40 35
66 82 90 45 23 74 24 82 3 5 -13 13 -12 55 11 56 31 67 55 40 89 -21 27 -50
35 -95 26z"/>
</g>
</svg>
